<svg id="visual" viewBox="0 0 900 900" width="900" height="900" xmlns="http://www.w3.org/2000/svg" xmlns:xlink="http://www.w3.org/1999/xlink" version="1.1"><g stroke-width="1" stroke-linejoin="bevel"><path d="M516 516L743 392L526 331Z" fill="#94b8d3" stroke="#94b8d3"></path><path d="M516 516L747 539L743 392Z" fill="#4e8abd" stroke="#4e8abd"></path><path d="M743 392L573 169L526 331Z" fill="#5890c0" stroke="#5890c0"></path><path d="M516 516L702 688L747 539Z" fill="#76a5c9" stroke="#76a5c9"></path><path d="M900 508L900 385L743 392Z" fill="#80abcc" stroke="#80abcc"></path><path d="M743 392L752 150L573 169Z" fill="#4e8abd" stroke="#4e8abd"></path><path d="M900 508L743 392L747 539Z" fill="#6c9ec6" stroke="#6c9ec6"></path><path d="M900 718L900 508L747 539Z" fill="#8ab2d0" stroke="#8ab2d0"></path><path d="M900 385L752 150L743 392Z" fill="#4e8abd" stroke="#4e8abd"></path><path d="M516 516L503 718L702 688Z" fill="#5890c0" stroke="#5890c0"></path><path d="M341 578L503 718L516 516Z" fill="#80abcc" stroke="#80abcc"></path><path d="M322 320L516 516L526 331Z" fill="#80abcc" stroke="#80abcc"></path><path d="M322 320L341 578L516 516Z" fill="#8ab2d0" stroke="#8ab2d0"></path><path d="M336 168L322 320L526 331Z" fill="#6297c3" stroke="#6297c3"></path><path d="M573 169L336 168L526 331Z" fill="#80abcc" stroke="#80abcc"></path><path d="M387 0L336 168L573 169Z" fill="#6c9ec6" stroke="#6c9ec6"></path><path d="M900 385L900 149L752 150Z" fill="#397cb6" stroke="#397cb6"></path><path d="M702 688L900 718L747 539Z" fill="#4483b9" stroke="#4483b9"></path><path d="M741 900L900 718L702 688Z" fill="#6c9ec6" stroke="#6c9ec6"></path><path d="M144 714L333 752L341 578Z" fill="#5890c0" stroke="#5890c0"></path><path d="M341 578L333 752L503 718Z" fill="#4483b9" stroke="#4483b9"></path><path d="M503 718L510 900L702 688Z" fill="#80abcc" stroke="#80abcc"></path><path d="M720 0L573 169L752 150Z" fill="#76a5c9" stroke="#76a5c9"></path><path d="M720 0L563 0L573 169Z" fill="#397cb6" stroke="#397cb6"></path><path d="M900 0L720 0L752 150Z" fill="#94b8d3" stroke="#94b8d3"></path><path d="M322 320L183 534L341 578Z" fill="#80abcc" stroke="#80abcc"></path><path d="M140 375L183 534L322 320Z" fill="#76a5c9" stroke="#76a5c9"></path><path d="M179 144L140 375L322 320Z" fill="#9ebfd6" stroke="#9ebfd6"></path><path d="M385 900L510 900L503 718Z" fill="#397cb6" stroke="#397cb6"></path><path d="M563 0L387 0L573 169Z" fill="#4e8abd" stroke="#4e8abd"></path><path d="M336 168L179 144L322 320Z" fill="#94b8d3" stroke="#94b8d3"></path><path d="M510 900L741 900L702 688Z" fill="#4e8abd" stroke="#4e8abd"></path><path d="M900 149L900 0L752 150Z" fill="#397cb6" stroke="#397cb6"></path><path d="M213 0L179 144L336 168Z" fill="#397cb6" stroke="#397cb6"></path><path d="M333 752L385 900L503 718Z" fill="#4e8abd" stroke="#4e8abd"></path><path d="M218 900L385 900L333 752Z" fill="#80abcc" stroke="#80abcc"></path><path d="M741 900L900 900L900 718Z" fill="#4e8abd" stroke="#4e8abd"></path><path d="M0 538L144 714L183 534Z" fill="#76a5c9" stroke="#76a5c9"></path><path d="M183 534L144 714L341 578Z" fill="#6c9ec6" stroke="#6c9ec6"></path><path d="M387 0L213 0L336 168Z" fill="#6c9ec6" stroke="#6c9ec6"></path><path d="M144 714L218 900L333 752Z" fill="#5890c0" stroke="#5890c0"></path><path d="M0 220L140 375L179 144Z" fill="#9ebfd6" stroke="#9ebfd6"></path><path d="M0 220L0 334L140 375Z" fill="#397cb6" stroke="#397cb6"></path><path d="M140 375L0 538L183 534Z" fill="#4483b9" stroke="#4483b9"></path><path d="M0 334L0 538L140 375Z" fill="#94b8d3" stroke="#94b8d3"></path><path d="M144 714L0 900L218 900Z" fill="#80abcc" stroke="#80abcc"></path><path d="M0 0L0 220L179 144Z" fill="#6c9ec6" stroke="#6c9ec6"></path><path d="M0 538L0 760L144 714Z" fill="#94b8d3" stroke="#94b8d3"></path><path d="M213 0L0 0L179 144Z" fill="#5890c0" stroke="#5890c0"></path><path d="M0 760L0 900L144 714Z" fill="#397cb6" stroke="#397cb6"></path></g></svg>